<svg width="7569" height="7569" viewBox="0 0 7569 7569" fill="none" xmlns="http://www.w3.org/2000/svg">
<rect width="7568.18" height="7568.18" fill="white"/>
<path d="M3830.07 2637.76H5206.07V4357.75C5206.07 4562.62 5203.01 4730.8 5196.9 4862.29C5190.78 4993.77 5170.9 5096.21 5137.27 5169.59C5106.69 5239.92 5054.71 5291.9 4981.32 5325.54C4910.99 5356.12 4810.09 5374.46 4678.6 5380.58C4550.18 5386.69 4382 5389.75 4174.07 5389.75H3394.34C3189.47 5389.75 3021.29 5386.69 2889.81 5380.58C2758.32 5374.46 2655.89 5356.12 2582.5 5325.54C2512.17 5291.9 2460.19 5239.92 2426.55 5169.59C2395.98 5096.21 2377.63 4993.77 2371.51 4862.29C2365.4 4730.8 2362.34 4562.62 2362.34 4357.75V2637.76H3738.34V4013.75C3784.2 4013.75 3810.2 4010.7 3816.31 4004.58C3825.48 3995.41 3830.07 3967.89 3830.07 3922.02V2637.76ZM3463.14 2179.09H4105.27V2546.02H3463.14V2179.09Z" fill="black"/>
<path d="M4826.37 2546.14H4781.96V2366.12H4714V2328.03H4892.19V2366.12H4826.37V2546.14ZM4960.15 2546.14H4918.41V2328.03H4987.97L5027.57 2478.5L5067.44 2328.03H5137V2546.14H5094.73V2372.24L5047.1 2546.14H5007.24L4960.15 2372.24V2546.14Z" fill="black"/>
</svg>
