<svg width="2844" height="3211" viewBox="0 0 2844 3211" fill="none" xmlns="http://www.w3.org/2000/svg">
<path d="M1467.73 458.666H2843.73V2178.66C2843.73 2383.53 2840.67 2551.71 2834.56 2683.2C2828.44 2814.68 2808.56 2917.12 2774.93 2990.5C2744.35 3060.83 2692.37 3112.81 2618.98 3146.45C2548.65 3177.03 2447.75 3195.37 2316.26 3201.49C2187.84 3207.6 2019.66 3210.66 1811.73 3210.66H1032C827.128 3210.66 658.95 3207.6 527.466 3201.49C395.982 3195.37 293.546 3177.03 220.16 3146.45C149.831 3112.81 97.8487 3060.83 64.2132 2990.5C33.6355 2917.12 15.2889 2814.68 9.17331 2683.2C3.05777 2551.71 0 2383.53 0 2178.66V458.666H1376V1834.66C1421.86 1834.66 1447.86 1831.61 1453.97 1825.49C1463.14 1816.32 1467.73 1788.8 1467.73 1742.93V458.666ZM1100.8 0H1742.93V366.933H1100.8V0Z" fill="black"/>
<path d="M2464.03 367.053H2419.62V187.026H2351.66V148.943H2529.85V187.026H2464.03V367.053ZM2597.81 367.053H2556.07V148.943H2625.63L2665.23 299.409L2705.1 148.943H2774.66V367.053H2732.39V193.151L2684.76 367.053H2644.9L2597.81 193.151V367.053Z" fill="black"/>
</svg>
